<mxfile host="app.diagrams.net" modified="2024-05-22T14:26:04.424Z" agent="Mozilla/5.0 (Macintosh; Intel Mac OS X 10_15_7) AppleWebKit/537.36 (KHTML, like Gecko) Chrome/118.0.0.0 Safari/537.36" etag="nof6-nerlRJLoiMqbGZ1" version="24.4.6" type="device">
  <diagram name="페이지-1" id="jFSf3hoxHNFURL-VD0vF">
    <mxGraphModel dx="-281" dy="780" grid="1" gridSize="10" guides="1" tooltips="1" connect="1" arrows="1" fold="1" page="1" pageScale="1" pageWidth="827" pageHeight="1169" math="0" shadow="0">
      <root>
        <mxCell id="0" />
        <mxCell id="1" parent="0" />
        <mxCell id="8SwLyijxy1Ru8mRJdpdb-3" value="" style="shape=umlLifeline;perimeter=lifelinePerimeter;whiteSpace=wrap;html=1;container=1;dropTarget=0;collapsible=0;recursiveResize=0;outlineConnect=0;portConstraint=eastwest;newEdgeStyle={&quot;curved&quot;:0,&quot;rounded&quot;:0};participant=umlActor;" parent="1" vertex="1">
          <mxGeometry x="930" y="225" width="20" height="205" as="geometry" />
        </mxCell>
        <mxCell id="8SwLyijxy1Ru8mRJdpdb-4" value="" style="html=1;points=[[0,0,0,0,5],[0,1,0,0,-5],[1,0,0,0,5],[1,1,0,0,-5]];perimeter=orthogonalPerimeter;outlineConnect=0;targetShapes=umlLifeline;portConstraint=eastwest;newEdgeStyle={&quot;curved&quot;:0,&quot;rounded&quot;:0};" parent="8SwLyijxy1Ru8mRJdpdb-3" vertex="1">
          <mxGeometry x="5" y="40" width="10" height="160" as="geometry" />
        </mxCell>
        <mxCell id="8SwLyijxy1Ru8mRJdpdb-5" value="User" style="text;html=1;align=center;verticalAlign=middle;whiteSpace=wrap;rounded=0;" parent="1" vertex="1">
          <mxGeometry x="920" y="200" width="60" height="30" as="geometry" />
        </mxCell>
        <mxCell id="8SwLyijxy1Ru8mRJdpdb-7" value="4: pageinated MailList" style="html=1;verticalAlign=bottom;endArrow=open;dashed=1;endSize=8;curved=0;rounded=0;" parent="1" edge="1">
          <mxGeometry x="-0.0001" relative="1" as="geometry">
            <mxPoint x="1134.5" y="390" as="sourcePoint" />
            <mxPoint x="942.75" y="390" as="targetPoint" />
            <mxPoint as="offset" />
          </mxGeometry>
        </mxCell>
        <mxCell id="8SwLyijxy1Ru8mRJdpdb-8" value=":System" style="shape=umlLifeline;perimeter=lifelinePerimeter;whiteSpace=wrap;html=1;container=1;dropTarget=0;collapsible=0;recursiveResize=0;outlineConnect=0;portConstraint=eastwest;newEdgeStyle={&quot;edgeStyle&quot;:&quot;elbowEdgeStyle&quot;,&quot;elbow&quot;:&quot;vertical&quot;,&quot;curved&quot;:0,&quot;rounded&quot;:0};" parent="1" vertex="1">
          <mxGeometry x="1085" y="229" width="100" height="200" as="geometry" />
        </mxCell>
        <mxCell id="8SwLyijxy1Ru8mRJdpdb-9" value="" style="html=1;points=[[0,0,0,0,5],[0,1,0,0,-5],[1,0,0,0,5],[1,1,0,0,-5]];perimeter=orthogonalPerimeter;outlineConnect=0;targetShapes=umlLifeline;portConstraint=eastwest;newEdgeStyle={&quot;curved&quot;:0,&quot;rounded&quot;:0};" parent="8SwLyijxy1Ru8mRJdpdb-8" vertex="1">
          <mxGeometry x="45" y="55" width="10" height="135" as="geometry" />
        </mxCell>
        <mxCell id="844suyQjuov6naEKO8QY-2" value="" style="html=1;points=[[0,0,0,0,5],[0,1,0,0,-5],[1,0,0,0,5],[1,1,0,0,-5]];perimeter=orthogonalPerimeter;outlineConnect=0;targetShapes=umlLifeline;portConstraint=eastwest;newEdgeStyle={&quot;curved&quot;:0,&quot;rounded&quot;:0};" vertex="1" parent="8SwLyijxy1Ru8mRJdpdb-8">
          <mxGeometry x="50" y="60" width="10" height="30" as="geometry" />
        </mxCell>
        <mxCell id="844suyQjuov6naEKO8QY-3" value="" style="endArrow=classic;html=1;rounded=0;exitX=1;exitY=0;exitDx=0;exitDy=5;exitPerimeter=0;" edge="1" parent="8SwLyijxy1Ru8mRJdpdb-8" source="844suyQjuov6naEKO8QY-2" target="844suyQjuov6naEKO8QY-2">
          <mxGeometry width="50" height="50" relative="1" as="geometry">
            <mxPoint y="260" as="sourcePoint" />
            <mxPoint x="50" y="210" as="targetPoint" />
          </mxGeometry>
        </mxCell>
        <mxCell id="844suyQjuov6naEKO8QY-7" value="" style="endArrow=classic;html=1;rounded=0;exitX=1;exitY=0;exitDx=0;exitDy=5;exitPerimeter=0;" edge="1" source="844suyQjuov6naEKO8QY-9" target="844suyQjuov6naEKO8QY-9" parent="8SwLyijxy1Ru8mRJdpdb-8">
          <mxGeometry width="50" height="50" relative="1" as="geometry">
            <mxPoint x="1" y="301" as="sourcePoint" />
            <mxPoint x="51" y="251" as="targetPoint" />
          </mxGeometry>
        </mxCell>
        <mxCell id="844suyQjuov6naEKO8QY-9" value="" style="html=1;points=[[0,0,0,0,5],[0,1,0,0,-5],[1,0,0,0,5],[1,1,0,0,-5]];perimeter=orthogonalPerimeter;outlineConnect=0;targetShapes=umlLifeline;portConstraint=eastwest;newEdgeStyle={&quot;curved&quot;:0,&quot;rounded&quot;:0};" vertex="1" parent="8SwLyijxy1Ru8mRJdpdb-8">
          <mxGeometry x="51" y="101" width="10" height="30" as="geometry" />
        </mxCell>
        <mxCell id="844suyQjuov6naEKO8QY-5" value="2: getMessageList(page, pageSize)" style="text;html=1;align=center;verticalAlign=middle;whiteSpace=wrap;rounded=0;" vertex="1" parent="1">
          <mxGeometry x="1165" y="289" width="195" height="30" as="geometry" />
        </mxCell>
        <mxCell id="844suyQjuov6naEKO8QY-8" value="3: getMessageCount()" style="text;html=1;align=center;verticalAlign=middle;whiteSpace=wrap;rounded=0;" vertex="1" parent="1">
          <mxGeometry x="1159" y="331" width="150" height="30" as="geometry" />
        </mxCell>
        <mxCell id="844suyQjuov6naEKO8QY-10" value="" style="endArrow=classic;html=1;rounded=0;" edge="1" parent="1">
          <mxGeometry width="50" height="50" relative="1" as="geometry">
            <mxPoint x="945" y="290" as="sourcePoint" />
            <mxPoint x="1129.5" y="290" as="targetPoint" />
          </mxGeometry>
        </mxCell>
        <mxCell id="844suyQjuov6naEKO8QY-11" value="1: MainMenu(page)" style="text;html=1;align=center;verticalAlign=middle;whiteSpace=wrap;rounded=0;" vertex="1" parent="1">
          <mxGeometry x="970" y="259" width="110" height="30" as="geometry" />
        </mxCell>
      </root>
    </mxGraphModel>
  </diagram>
</mxfile>
